<svg xmlns="http://www.w3.org/2000/svg" viewBox="0 0 100 66"><defs><linearGradient id="arkane-gradient" x1="0%" y1="0%" y2="0%"><stop offset="-.4" stop-color="#f74989"><animate id="anim" fill="freeze" attributeName="offset" begin="2s;anim.end+5000ms" dur="1000ms" from="-.4" to="1"/><animate id="anim2" fill="freeze" attributeName="offset" begin="anim.end+500ms" dur="220ms" from="-.8" to="-2"/></stop><stop offset="0" stop-color="#dd49f8"><animate fill="freeze" attributeName="offset" begin="2s;anim.end+5000ms" dur="1000ms" from="0" to="1.4"/><animate fill="freeze" attributeName="offset" begin="anim.end+500ms" dur="220ms" from="-.4" to="0"/></stop><stop offset=".4" stop-color="#f74989"><animate fill="freeze" attributeName="offset" begin="2s;anim.end+5000ms" dur="1000ms" from=".4" to="1.9"/><animate fill="freeze" attributeName="offset" begin="anim.end+500ms" dur="220ms" from="0" to=".4"/></stop><stop offset=".4" stop-color="#f74989"><animate fill="freeze" attributeName="offset" begin="2s;anim.end+5000ms" dur="1000ms" from=".4" to="1.9"/><animate fill="freeze" attributeName="offset" begin="anim.end+500ms" dur="220ms" from="0" to=".4"/></stop><stop offset="1" stop-color="#f74989"/></linearGradient><style/><clipPath id="clip-path-a" transform="translate(-1)"><path fill="none" d="M63.91 31.68C55.09 17.07 46.59 2.93 45.62 1.62A3.86 3.86 0 0 0 43.38 0h-.72a3.86 3.86 0 0 0-2.24 1.59c-1 1.31-9.47 15.45-18.29 30.06C12 48.46 1 66 1 66h11l27.41-44.95s1.88-3.17 3.58-3.12c1.69-.05 3.58 3.12 3.58 3.12L74 66h11S74.05 48.46 63.91 31.68z"/></clipPath><clipPath id="clip-path-dash" transform="translate(-1)"><path fill="none" d="M47 30h-8a3 3 0 0 0 0 6h8a3 3 0 0 0 0-6z"/></clipPath></defs><g id="logos"><g id="color"><g clip-path="url(#clip-path-a)"><path fill="#f74989" d="M0 0v66h84V0z"/><path fill="url(#arkane-gradient)" d="M0 0v66h84V0z"/></g><g clip-path="url(#clip-path-dash)"><path fill="#f74989" d="M0 0v66h84V0z"/><path fill="url(#arkane-gradient)" d="M0 0v66h84V0z"/></g></g></g></svg>