<svg xmlns="http://www.w3.org/2000/svg" width="330" height="330"><g fill="none" fill-rule="evenodd"><circle cx="164.912" cy="164.912" r="164.912" fill="#000"/><g fill="#FFF" transform="rotate(45 52.303 211.556)"><path d="M20.568 0h54.764C86.692 0 95.9 9.208 95.9 20.568v54.764c0 11.36-9.209 20.568-20.568 20.568H20.568C9.208 95.9 0 86.69 0 75.332V20.568C0 9.208 9.208 0 20.568 0zM47.95 65.931c9.93 0 17.981-8.05 17.981-17.981 0-9.93-8.05-17.981-17.981-17.981-9.93 0-17.981 8.05-17.981 17.98 0 9.932 8.05 17.982 17.98 17.982z"/><path fill-rule="nonzero" d="M122.46 7.714c-7.1 0-12.855 5.755-12.855 12.855v54.764c0 7.1 5.756 12.855 12.855 12.855h54.764c7.1 0 12.855-5.756 12.855-12.855V20.569c0-7.1-5.755-12.855-12.855-12.855H122.46zm0-7.713h54.764c11.36 0 20.568 9.208 20.568 20.568v54.764c0 11.36-9.208 20.568-20.568 20.568H122.46c-11.36 0-20.568-9.209-20.568-20.568V20.569C101.892 9.209 111.101 0 122.46 0z"/><circle cx="149.842" cy="47.951" r="17.981"/><path d="M20.568 101.893h54.764c11.36 0 20.568 9.209 20.568 20.568v54.764c0 11.36-9.209 20.568-20.568 20.568H20.568C9.208 197.793 0 188.585 0 177.225v-54.764c0-11.36 9.208-20.568 20.568-20.568zm27.382 65.931c9.93 0 17.981-8.05 17.981-17.98 0-9.932-8.05-17.982-17.981-17.982-9.93 0-17.981 8.05-17.981 17.981 0 9.93 8.05 17.981 17.98 17.981zm74.511-65.931h54.764c11.36 0 20.568 9.209 20.568 20.568v54.764c0 11.36-9.208 20.568-20.568 20.568h-54.764c-11.36 0-20.568-9.208-20.568-20.568v-54.764c0-11.36 9.209-20.568 20.568-20.568zm27.382 65.931c9.93 0 17.981-8.05 17.981-17.98 0-9.932-8.05-17.982-17.98-17.982-9.932 0-17.982 8.05-17.982 17.981 0 9.93 8.05 17.981 17.981 17.981z"/></g></g></svg>