<svg xmlns="http://www.w3.org/2000/svg" width="317" height="331"><g fill="none"><path fill="#BBB" stroke="#BBB" d="M300 229l-19.237 65L243 283.679z"/><path fill="#BBB" stroke="#BBB" d="M243 284l36.423-50.166L300 229z"/><path fill="#DDD" d="M272 179.716l28 49.436L279.643 234 272 179.716zm0 0L290.017 167 300 229.152l-28-49.436z"/><path fill="#000" stroke="#000" d="M249 142.561L301 121l-2.584 11.811-49.416 9.75zM296.771 147L249 142.561l49.416-9.75L296.77 147z"/><path fill="#000" stroke="#000" d="M296.852 146.863L290.689 167 249 142.498l47.852 4.365zm10.042-20.884L298 132.777 300.62 121l6.274 4.98zM296 147.148L297.668 133l7.067 5.849-8.735 8.299z"/><path fill="#000" stroke="#000" d="M290.502 167l6.249-20.478L303 151.67 290.502 167zm.49.108l-55.2-18.125 13.186-7.429 42.014 25.554z"/><path fill="#000" stroke="#000" d="M261.963 80.313L249 142.453 236 149z"/><path fill="#000" stroke="#000" d="M301 121.352l-52.633 21.87 13.258-62.71z"/><path fill="#000" stroke="#000" d="M262 81.27L317 75l-16.002 46.375z"/><path fill="#DDD" d="M290.682 166.885L271.896 180l-36.598-31.32z"/><path fill="#000" stroke="#000" d="M313.883 31.113L317 75.166l-55.252 6.393z"/><path fill="#BBB" stroke="#BBB" d="M314 31l-109.474 80.583L203 56.74z"/><path fill="#DDD" d="M122 50l81.574 6.431 1.54 54.373z"/><path fill="#000" stroke="#000" d="M236.105 149L205 109.872 262 81z"/><path fill="#BBB" stroke="#BBB" d="M235.673 149l37.03 31.193-51.998 5.354z"/><path fill="#BBB" stroke="#BBB" d="M220.5 186.56L205 110l31 38.994z"/><path fill="#000" stroke="#000" d="M261.822 81.924L205 111l109-80z"/><path fill="#C0AD9E" d="M122.28 283.057L148 310l-35-32z"/><path fill="#999" stroke="#999" d="M243 284l12.078-46.524 24.474-3.46z"/><path fill="#E2761B" d="M18 153l45-47-39.196 41.392z"/><path fill="#DDD" d="M279.639 234.053l-24.747 3.739 17.358-57.34 7.389 53.6zm-74.764-123.497l-43.573-1.425L122 50l82.875 60.556z"/><path fill="#AAA" stroke="#AAA" d="M272.86 178.466l-17.824 59.937-1.605-29.201z"/><path fill="#999" stroke="#999" d="M221 185.535L272 180l-17.925 29z"/><path fill="#DDD" d="M161 109l44.04.762L221 186z"/><path fill="#BBB" stroke="#BBB" d="M162.667 110.812L43.877 0l78.81 49.737 39.98 61.075zm-40.062 188.072L20.408 331 0 252.228l122.605 46.656z"/><path fill="#000" stroke="#000" d="M33 172l38.627-30L104 149.441z"/><path fill="#000" stroke="#000" d="M104 150l-32-7.513L89.134 71zm-80-2.83L72 142l-38.59 30z"/><path fill="#999" stroke="#999" d="M254 209l-19.942-10.126L221 185z"/><path fill="#000" stroke="#000" d="M24.025 147.56l-4.289-19.93 52.887 14.405z"/><path fill="#000" d="M229.505 222.028l4.386-23.41 20.128 10.325z"/><path fill="#DDD" d="M255 237l-25-15.46L253.676 209z"/><path fill="#000" stroke="#000" d="M72.078 142.372l-51.895-12.616L16 114.652l56.078 27.72zM89.446 70.63l-17.374 71.764L16 114.652 89.446 70.63zM89 71l72 38.037L103.774 150 89 71z"/><path fill="#BBB" stroke="#BBB" d="M102.94 149.79l58.507-41.671L187 187l-84.06-37.21zM187 187l-79.786-2.011-3.908-35.156L187 187z"/><path fill="#DDD" d="M32.071 171.778l71.846-22.475 3.51 36.037-75.356-13.562zM221 185.815L186.51 187l-25.493-78L221 185.815z"/><path fill="#999" stroke="#999" d="M234 198.617L229.903 221 221 185z"/><path fill="#000" stroke="#000" d="M44 0l117 109-72.302-37.8z"/><path fill="#BBB" stroke="#BBB" d="M0 252.468l98.903-4.78 24.019 51.744z"/><path fill="#999" stroke="#999" d="M122.545 299L99 248.384 148 246z"/><path fill="#BBB" stroke="#BBB" d="M230.673 221.514l25.35 15.503 9.307 30.52-34.657-46.023zM108.11 184.655L0 252.6 33.641 172l74.47 12.655zm-9.082 63.83L0 252.6l108.11-67.944-9.081 63.83zm122.72-63.355l6.58 24.222-32.127 1.838 25.547-26.06zm-25.606 26.18l-8.904-24.994 34.51-1.186-25.606 26.18z"/><path fill="#FBFBFB" d="M148.454 309.72L122 299l92 16z"/><path fill="#000" stroke="#000" d="M33.54 171.776L18 152.6l6.122-6.08z"/><path fill="#FFF" d="M225.334 302.742l-10.885 12.975L122 299z"/><path fill="#BBB" stroke="#BBB" d="M230.498 275.182L122 299l25.263-53z"/><path fill="#FFF" d="M122 299.011l102.426-22.772L230 275l-4.974 28z"/><path fill="#000" stroke="#000" d="M16.537 114.898l-3.425-61.21 76.674 17.127-73.25 44.083zm7.636 32.259l-10.544-9.848 7.073-7.285 3.47 17.133z"/><path fill="#999" stroke="#999" d="M169 202.545l17.88-16.601L184.428 225z"/><path fill="#999" stroke="#999" d="M186 187l-16.607 16.095L143 216z"/><path fill="#BBB" stroke="#BBB" d="M264.223 266.476L230 222l34.223 44.476z"/><path fill="#999" stroke="#999" d="M143.637 216L108 185l79 1.678z"/><path fill="#AAA" stroke="#AAA" d="M184 225l2.96-39.374 9.343 25.484z"/><path fill="#000" stroke="#000" d="M10 119.969L16.65 114 21 129z"/><path fill="#000" d="M185.065 225.884l-42.587-9.848L168.803 202z"/><path fill="#000" stroke="#000" d="M89 71L13 53.785 44.044 0z"/><path fill="#FBFBFB" d="M214.662 314.608l4.661 12.24-71.173-17.51z"/><path fill="#DDD" d="M146.878 247L143 216l41 9.324z"/><path fill="#AAA" stroke="#AAA" d="M108 185l36.088 30.46 3.199 30.97z"/><path fill="#DDD" d="M196.128 211.066l31.948-1.958L265 267l-68.872-55.934zM108.073 185l39.528 61.619-48.856 1.979L108.073 185z"/><path fill="#AAA" stroke="#AAA" d="M196.218 211L235 270l-51.593-44.906z"/><path fill="#BBB" stroke="#BBB" d="M183.71 224.863l51.777 45.143-6.529 5.543z"/><path fill="#DDD" d="M229.403 275L147 246.556l36.877-21.492L229.403 275zm35.662-7.962l-30.054 3.34-39.856-61.039 69.91 57.7z"/><path fill="#FBFBFB" d="M272.008 294.41l-12.651 25.953L218.346 327l53.662-32.59zm-52.45 32.873L214 315.148l11.114-12.204-5.557 24.339z"/><path fill="#FBFBFB" d="M225.052 302.969l7.757-3.07L219 327l6.052-24.031zM219 327l13.71-27.15 39.322-5.434L219 327z"/><path fill="#000" d="M265.134 267l9.849 5.75L245 276z"/><path fill="#000" d="M244.535 276.545L235 270.341l30.137-3.292-20.602 9.496zm-3.389 4.694L277 276.864l-4.964 17.61-30.89-13.235z"/><path fill="#000" d="M272.066 294.415l-39.391 5.513 8.692-19.138 30.7 13.625zm-39.207 5.441L225 303l4.644-28.003 3.215 24.86zm-3.212-24.864l5.612-4.992 9.476 6.143-15.088-1.151zm45.173-2.38l2.19 4.283-36.518 4.46 34.328-8.743z"/><path fill="#000" d="M241.28 281.167l2.987-5.354 30.61-3.163-33.597 8.517zm-11.638-6.18l11.768 6.105L232.735 300l-3.093-25.013z"/><path fill="#000" d="M244.553 276.002l-3.206 5.345-11.694-6.35z"/></g></svg>