<svg xmlns="http://www.w3.org/2000/svg" viewBox="0 0 119.71 130.89"><path fill="#fffffe" fill-rule="evenodd" d="M110.98 10.95l-5.8 34.77-20.62-24.26zm-5.67 49.73l5.16 19L71 90.6zM19.4 51.1l21.16-27.64H77.3l23.49 27.64zm78.67 6.83L59.81 91.3l-39-33.37h77.26zm-64.6-36.45l-18.9 24.69-5.81-35.09 24.71 10.39zm15 69.11L8.64 79.74l5.43-18.59zm7.35 9.08l-7.52 8.28a124.94 124.94 0 0 0-20.86-16l28.38 7.73zm36.48-7.85a125 125 0 0 0-20.8 16.2l-7.68-8.36 28.48-7.84zM119.71.13l-41.48 16.5H39.56L0 0l9 54.3L.36 83.7l22.51 13.46a118 118 0 0 1 28.38 23.69l8.77 10 9.2-10.55a117.65 117.65 0 0 1 27.32-23.07l22.08-13.54-8-29.36z"/></svg>