<svg xmlns="http://www.w3.org/2000/svg" width="160" height="184"><path d="M80 7.3l4.235-5.467a6.916 6.916 0 0 0-8.47 0L80 7.3zm72.5 21.3l6.915.113a6.916 6.916 0 0 0-6.915-7.029V28.6zM80 176.7l-3.831 5.757a6.913 6.913 0 0 0 7.662 0L80 176.7zM7.6 28.6v-6.916a6.915 6.915 0 0 0-6.915 7.028L7.6 28.6zm68.165-15.833c31.385 24.316 67.297 22.749 76.735 22.749V21.684c-9.762 0-41.05 1.233-68.265-19.851l-8.47 10.934zm69.82 15.72c-.521 32.124-1.88 54.782-4.484 71.57-2.568 16.61-6.241 26.565-10.968 33.557-4.79 7.264-10.798 11.575-19.701 16.894-8.98 5.379-20.325 11.173-34.263 20.435l7.662 11.514c13.261-8.838 24.318-14.469 33.703-20.081 9.462-5.671 17.785-11.917 24.058-21.015 6.335-9.371 10.456-21.585 13.178-39.19 2.688-17.428 4.116-41.032 4.645-73.459l-13.83-.225zM83.831 170.943c-13.938-9.262-25.274-15.055-34.244-20.433-8.893-5.318-14.888-9.627-19.666-16.89-4.717-6.991-8.378-16.947-10.938-33.56-2.594-16.788-3.947-39.448-4.468-71.573l-13.83.225c.53 32.426 1.95 56.029 4.628 73.455 2.713 17.603 6.82 29.817 13.141 39.188 6.26 9.099 14.57 15.347 24.025 21.02 9.376 5.612 20.428 11.244 33.69 20.082l7.662-11.514zM7.6 35.516c9.34 0 45.25 1.566 76.635-22.75l-8.47-10.933C48.548 22.918 17.26 21.684 7.6 21.684v13.832z"/></svg>