<svg xmlns="http://www.w3.org/2000/svg" width="500.5" height="462.39"><path fill="#25b9e6" d="M9.05 265h71.89V148.24H9.05zm71.89 0h107.82V89.83H80.94zm179.7-77.1L210.57 265h-21.81V148.23h71.88v39.71z"/><path fill="#e4ecf7" d="M116.87 130.26h-9a4.49 4.49 0 0 1-4.49-4.49v-9a4.49 4.49 0 0 1 4.49-4.49h9a4.49 4.49 0 0 1 4.49 4.49v9a4.49 4.49 0 0 1-4.49 4.49m44.94 0h-9a4.49 4.49 0 0 1-4.5-4.49v-9a4.49 4.49 0 0 1 4.5-4.49h9a4.49 4.49 0 0 1 4.49 4.49v9a4.49 4.49 0 0 1-4.49 4.49m-44.94 35.94h-9a4.48 4.48 0 0 1-4.48-4.49v-9a4.5 4.5 0 0 1 4.49-4.5h9a4.51 4.51 0 0 1 4.5 4.5v9a4.5 4.5 0 0 1-4.5 4.49m44.94 0h-9a4.49 4.49 0 0 1-4.5-4.49v-9a4.5 4.5 0 0 1 4.5-4.5h9a4.5 4.5 0 0 1 4.49 4.5v9a4.49 4.49 0 0 1-4.49 4.49m-44.94 36h-9a4.49 4.49 0 0 1-4.49-4.49v-9a4.49 4.49 0 0 1 4.49-4.49h9a4.49 4.49 0 0 1 4.49 4.49v9a4.49 4.49 0 0 1-4.49 4.5m44.94 0h-9a4.49 4.49 0 0 1-4.5-4.49v-9a4.49 4.49 0 0 1 4.5-4.49h9a4.49 4.49 0 0 1 4.49 4.49v9a4.49 4.49 0 0 1-4.49 4.5M116.88 265h35.94v-40.39h-35.94zm-85.36-18h27v-35.87h-27zm0-53.91h27v-27h-27zm206.66 29.37L222.24 247h-11v-35.87h27zm-27-29.37h27v-27h-27z"/><path fill="#ffd168" d="M139.34 76.33a18 18 0 0 1-18-17.95 4.47 4.47 0 0 1 8.94 0 9 9 0 1 0 9-9 18 18 0 1 1 17.95-18 4.48 4.48 0 0 1-8.95 0 9 9 0 1 0-9 9 18 18 0 0 1 0 35.91z"/><path fill="#ffd168" d="M139.34 94.3a4.48 4.48 0 0 1-4.48-4.47V4.47a4.48 4.48 0 0 1 8.95 0v85.36a4.48 4.48 0 0 1-4.47 4.48z"/><path fill="#055369" d="M188.76 269.52H80.94a4.48 4.48 0 0 1-4.48-4.47V89.82a4.49 4.49 0 0 1 4.48-4.48h107.82a4.48 4.48 0 0 1 4.47 4.48v175.23a4.47 4.47 0 0 1-4.47 4.47zm-103.35-9h98.87V94.3H85.41z"/><path fill="#055369" d="M207.66 269.52h-18.9a4.49 4.49 0 0 1-4.48-4.48V148.23a4.48 4.48 0 0 1 4.48-4.48h71.88a4.47 4.47 0 0 1 4.47 4.48v32.83l-8.95 13.77V152.7h-62.93v107.87h20.24l-5.81 8.95zm-126.72 0H9.06A4.48 4.48 0 0 1 4.6 265V148.22a4.48 4.48 0 0 1 4.47-4.48h71.87a4.48 4.48 0 0 1 4.47 4.48V265a4.48 4.48 0 0 1-4.47 4.48zm-67.41-8.95h62.93V152.7H13.53v107.87z"/><path fill="#055369" d="M9.06 152.7h-4.5a4.47 4.47 0 1 1-.18-8.94h4.68a4.48 4.48 0 0 1 0 9zm256.07 0h-4.49a4.47 4.47 0 1 1-.18-8.94h4.67a4.48 4.48 0 1 1 0 9zm-67.39-58.4H72a4.47 4.47 0 1 1 0-8.94h125.74a4.47 4.47 0 1 1 0 8.94zm-80.87 40.44h-9a9 9 0 0 1-9-9v-9a9 9 0 0 1 9-9h9a9 9 0 0 1 9 9v9a9 9 0 0 1-9 9zm-9-18v9h9v-9zm53.93 18h-9a9 9 0 0 1-9-9v-9a9 9 0 0 1 9-9h9a9 9 0 0 1 9 9v9a9 9 0 0 1-8.99 9zm-9-18v9h9v-9zm-35.95 53.91h-9a9 9 0 0 1-9-9v-9a9 9 0 0 1 9-9h9a9 9 0 0 1 9 9v9a9 9 0 0 1-8.98 9.03zm-9-18v9h9v-9h-9zm53.93 18h-9a9 9 0 0 1-9-9v-9a9 9 0 0 1 9-9h9a9 9 0 0 1 9 9v9a9 9 0 0 1-8.97 9.03zm-9-18v9h9v-9h-9zm-35.95 53.88h-9a9 9 0 0 1-9-9v-9a9 9 0 0 1 9-9h9a9 9 0 0 1 9 9v9a9 9 0 0 1-9 8.93zm-9-17.93v9h9v-9zm53.93 17.93h-9a9 9 0 0 1-9-9v-9a9 9 0 0 1 9-9h9a9 9 0 0 1 9 9v9a9 9 0 0 1-8.95 9.05zm-9-18v9h9v-9zm0 80.91h-35.89a4.47 4.47 0 0 1-4.47-4.47v-40.36a4.48 4.48 0 0 1 4.47-4.48h35.95a4.48 4.48 0 0 1 4.47 4.48V265a4.48 4.48 0 0 1-4.47 4.48zm-31.48-8.95h27v-31.4h-27v31.48zm13.5-184.24a18 18 0 0 1-18-17.95 4.48 4.48 0 0 1 9 0 9 9 0 1 0 9-9 18 18 0 1 1 17.95-18 4.47 4.47 0 0 1-8.94 0 9 9 0 1 0-9 9 18 18 0 1 1 0 35.91z"/><path fill="#055369" d="M134.84 94.3a4.47 4.47 0 0 1-4.47-4.47V4.47a4.48 4.48 0 0 1 8.95 0v85.36a4.49 4.49 0 0 1-4.48 4.48zM58.47 251.55H31.52a4.48 4.48 0 0 1-4.52-4.48v-35.94a4.49 4.49 0 0 1 4.48-4.48h27a4.48 4.48 0 0 1 4.47 4.48v35.94a4.48 4.48 0 0 1-4.47 4.48zM36 242.6h18v-27H36zm22.48-45H31.52a4.47 4.47 0 0 1-4.52-4.44v-26.95a4.48 4.48 0 0 1 4.48-4.48h27a4.47 4.47 0 0 1 4.47 4.48v26.95a4.47 4.47 0 0 1-4.47 4.47zM36 188.69h18v-18H36zm183.34 62.86h-8.11a4.48 4.48 0 0 1-4.47-4.48v-35.94a4.48 4.48 0 0 1 4.47-4.48h26.95a4.49 4.49 0 0 1 4.48 4.48v4.52l-9 13.78V215.6h-18v27h9.46l-5.81 9zm18.84-53.92h-26.96a4.46 4.46 0 0 1-4.47-4.47v-26.95a4.47 4.47 0 0 1 4.47-4.48h26.95a4.48 4.48 0 0 1 4.48 4.48v26.95a4.48 4.48 0 0 1-4.48 4.47zm-22.48-8.94h18v-18h-18z"/><path fill="#055369" d="M101.56 434.68a5 5 0 0 1-4.18-7.68L321.14 84.09a5 5 0 1 1 8.38 5.46L105.75 432.41a5 5 0 0 1-4.19 2.27z"/><path fill="#e0dfe3" d="M364.18 458.55h-54.5l5.31-25h43.87zM233.91 275.41H440v158.17H234z"/><path fill="#25b9e6" d="M237.23 278.74h199.4v125.64h-199.4z"/><path fill="#055369" d="M439.39 407.15H234.46V276h204.93zM240 401.62h193.86V281.5H240z"/><ellipse cx="336.93" cy="417.26" fill="#055369" rx="5.65" ry="5.66"/><path fill="#fff" d="M266.14 280.74h141.24v99.42H266.14z"/><path fill="#055369" d="M443.28 436.91V272.08H230.59V436.9H311l-4 18.32h-6.64v6.66h73.11v-6.66h-6.65l-4-18.32h80.42zm-129.61 18.31l4-18.32h38.55l4 18.32zm-76.43-176.48h25.58v106.14h147.89V278.74h25.92v151.51H237.24z"/><path fill="#055369" d="M306.35 413.93H313v6.66h-6.65zm54.5 0h6.65v6.66h-6.65z"/><path fill="#193651" d="M289.07 300.05h65.14v6.66h-65.14zm75.44 0h20.27v6.66h-20.27zm-50.18 23.64h70.45v6.66h-70.45zm-25.26 0h14.62v6.66h-14.62z"/><path fill="#9382bd" d="M263.84 260h145.84v122.52H263.84z"/><path fill="#f9f9fa" d="M275.6 271.75h122.32v99H275.6zm-11.76-35.35h145.84V260H263.84z"/><path fill="#055369" d="M261.49 234v150.88H412V234H261.49zm145.84 146.16H266.19V262.32h141.14v117.84zM266.19 257.62v-18.87h141.14v18.87z"/><path fill="#055369" d="M275.6 245.82h4.71v4.72h-4.71zm13.88 0h4.71v4.72h-4.71zm13.88 0h4.7v4.72h-4.7z"/><path fill="#010101" d="M342.07 332.52h-54.66V299h54.66zm-50.51-4.14h46.37v-25.22h-46.37zm95.71-36h-74.6V280h74.6zm-70.45-4.15h66.3v-4.12h-66.3zm-10.64 4.15h-18.77V280h18.77zm-14.62-4.15H302v-4.12h-10.44z"/><path fill="#055369" stroke="#055369" d="M497.79 404.29a14.65 14.65 0 0 1-2.88-.29 29.62 29.62 0 0 0 .67-6.36 6.65 6.65 0 0 0-13.27 0c0 3.64 2.91 7.07 7.06 9.13a19.1 19.1 0 0 1-2.18 3.8c-5.4-8.95-15.9-15.77-28.71-18.38a15.52 15.52 0 0 0 4.57-5.69 15.48 15.48 0 1 0-14.6-22 15.4 15.4 0 0 0-9.44 27 51.63 51.63 0 0 0-20.26 7.1 15.38 15.38 0 0 0-9.41-3.21 2.21 2.21 0 0 0-2.21 2.21 15.38 15.38 0 0 0 2.66 8.61 29.41 29.41 0 0 0-6.15 11.33h-.93a8.84 8.84 0 0 0-8.86 8.87 14.08 14.08 0 0 0 6.67 12l15.48 9.71v11.55a2.21 2.21 0 0 0 2.21 2.22H427a2.22 2.22 0 0 0 2-1.23l2.62-5.24a58.85 58.85 0 0 0 30.61 0l2.61 5.24a2.23 2.23 0 0 0 2 1.23h8.87a2.21 2.21 0 0 0 2.21-2.22v-11.73c8.45-6.24 13.27-14.81 13.27-23.72a25.57 25.57 0 0 0-1.8-9.27 23.51 23.51 0 0 0 4.22-6.69 19.81 19.81 0 0 0 4.21.45 2.22 2.22 0 0 0 0-4.44zm-7.06-1.84c-2.46-1.4-4-3.33-4-4.81a2.22 2.22 0 0 1 4.43-.18v.18a25.16 25.16 0 0 1-.47 4.82z"/><ellipse cx="462.41" cy="371.05" fill="#ffd168" rx="11.05" ry="11.08"/><path fill="#ffcb2a" d="M438.09 379.92a11 11 0 0 1 9-10.85 14.6 14.6 0 0 0-.2 2 15.06 15.06 0 0 0 .37 3.28 2.15 2.15 0 0 0-.37 1.15v8.86a2.21 2.21 0 1 0 4.42.22.81.81 0 0 0 0-.22v-2.47a15.41 15.41 0 0 0 7 4.07 11 11 0 0 1-20.23-6z"/><path fill="#ffd168" d="M438.09 379.92a11 11 0 0 1 9-10.85 14.6 14.6 0 0 0-.2 2 15.06 15.06 0 0 0 .37 3.28 2.15 2.15 0 0 0-.37 1.15v8.86a2.21 2.21 0 1 0 4.42.22.81.81 0 0 0 0-.22v-2.47a15.41 15.41 0 0 0 7 4.07 11 11 0 0 1-20.23-6z"/><path fill="#faa220" d="M451.36 381.87v2.47a2.22 2.22 0 1 1-4.43.18v-9a2.15 2.15 0 0 1 .37-1.15 15.06 15.06 0 0 1-.37-3.28 14.6 14.6 0 0 1 .2-2 11.22 11.22 0 0 0-3.74 1.44 15.35 15.35 0 0 0-.89 5 15.62 15.62 0 0 0 10.7 14.71 11 11 0 0 0 5.11-4.25 15.38 15.38 0 0 1-7-4.07z" opacity=".39" style="isolation:isolate"/><path fill="#055369" d="M462.41 377.7a2.22 2.22 0 0 0 2.21-2.22v-8.86a2.22 2.22 0 0 0-4.43-.18v9a2.23 2.23 0 0 0 2.22 2.26z"/><path fill="#fdd2b1" d="M474.44 445a2.22 2.22 0 0 0-1 1.82v10.66h-5.24l-2.83-5.68a2.21 2.21 0 0 0-2.65-1.13 53.91 53.91 0 0 1-31.57 0 2.22 2.22 0 0 0-2.64 1.13l-2.84 5.68h-5.27v-10.59a2.25 2.25 0 0 0-1-1.88l-16.49-10.29a9.72 9.72 0 0 1-4.57-8.28 4.45 4.45 0 0 1 4.41-4.42h2.69a2.21 2.21 0 0 0 2.17-1.78 24.77 24.77 0 0 1 6.7-12.33 2.21 2.21 0 0 0 .06-3 11.19 11.19 0 0 1-2.49-4.76A11 11 0 0 1 417 403a2.18 2.18 0 0 0 2.78.24c7.41-5 17-7.81 27.13-7.81 21.95 0 39.8 12.9 39.8 28.8.02 7.87-4.35 15.24-12.27 20.77z"/><path fill="#25b9e6" d="M474.44 445a2.22 2.22 0 0 0-1 1.82v10.66h-5.24l-2.83-5.68a2.21 2.21 0 0 0-2.65-1.13 53.91 53.91 0 0 1-31.57 0 2.22 2.22 0 0 0-2.64 1.13l-2.84 5.68h-5.27v-10.59a2.25 2.25 0 0 0-1-1.88l-16.49-10.29a9.72 9.72 0 0 1-4.57-8.28 4.45 4.45 0 0 1 4.41-4.42h2.69a2.21 2.21 0 0 0 2.17-1.78 24.77 24.77 0 0 1 6.7-12.33 2.21 2.21 0 0 0 .06-3 11.19 11.19 0 0 1-2.49-4.76A11 11 0 0 1 417 403a2.18 2.18 0 0 0 2.78.24c7.41-5 17-7.81 27.13-7.81 21.95 0 39.8 12.9 39.8 28.8.02 7.87-4.35 15.24-12.27 20.77z"/><path fill="#055369" d="M416 413.15a4.43 4.43 0 1 0 4.09 2.73 4.41 4.41 0 0 0-4.09-2.73z"/><path fill="#fff" d="M414.27 407.87c-.42.45-.78.93-1.17 1.39 8.51-4.48 19.52-7.21 31.62-7.21 16.45 0 31 5 39.78 12.72-5.41-11.23-20.19-19.37-37.57-19.37-10.08 0-19.72 2.78-27.13 7.82a2.2 2.2 0 0 1-2.8-.22 11 11 0 0 0-5.18-2.85 11.08 11.08 0 0 0 2.49 4.76 2.21 2.21 0 0 1-.04 2.96z" opacity=".2" style="isolation:isolate"/><path fill="#010101" d="M443.61 446.38a81.59 81.59 0 0 1-31.71-6l7.46 4.65a2.21 2.21 0 0 1 1 1.88v10.56h5.27l2.83-5.68a2.21 2.21 0 0 1 2.64-1.12 54.11 54.11 0 0 0 31.58 0 2.21 2.21 0 0 1 2.64 1.12l2.84 5.69h5.27V446.8a2.23 2.23 0 0 1 .95-1.82 31.22 31.22 0 0 0 8.55-8.63c-9.53 6.13-23.61 10-39.36 10z" opacity=".1" style="isolation:isolate"/><path fill="#055369" d="M463.1 402.18c-9.26-3-23.08-3-32.34 0a2.22 2.22 0 0 0 1.38 4.21c8.38-2.75 21.19-2.75 29.58 0a2.2 2.2 0 0 0 2.79-1.4 2.25 2.25 0 0 0 .09-.35 2.23 2.23 0 0 0-1.5-2.46z"/><path fill="#fff" fill-rule="evenodd" d="M367.93 332.42A14.25 14.25 0 1 0 378 336.6a14.26 14.26 0 0 0-10.07-4.18z"/><path fill="#067997" d="M367.55 330.1a16.18 16.18 0 1 0 11.45 4.75 16.2 16.2 0 0 0-11.45-4.75zm5.59 21.28l-4.14 4.23a2 2 0 0 1-1.41.6 2.06 2.06 0 0 1-1.42-.6l-4.17-4.23a2 2 0 0 1 0-2.87 1.09 1.09 0 0 1 1.55 0l2.11 2.13a2.64 2.64 0 0 0 3.74 0l2.13-2.14a1.11 1.11 0 0 1 1.56 0 2 2 0 0 1 0 2.87zm4.38-6.76a1.08 1.08 0 0 1-.77.33 1 1 0 0 1-.74-.31l-2-2a2.47 2.47 0 0 0-1.8-.75 2.6 2.6 0 0 0-1.86.78l-2 2.07a1.09 1.09 0 0 1-1 .31 1 1 0 0 1-.57-.3l-2-2a2.55 2.55 0 0 0-1.8-.75 2.6 2.6 0 0 0-1.86.78l-2 2.08a1.1 1.1 0 0 1-1.51 0 2 2 0 0 1 0-2.77l4-4.12a2 2 0 0 1 1.39-.58 1.88 1.88 0 0 1 1.32.55l3.28 3.35 3.33-3.39a2 2 0 0 1 1.39-.59 1.88 1.88 0 0 1 1.34.56l4 4.06a2 2 0 0 1 0 2.74z"/></svg>