<svg xmlns="http://www.w3.org/2000/svg" width="22" height="22"><g fill="none" fill-rule="evenodd" stroke="#333"><circle cx="11" cy="11" r="5" stroke-width="1.059"/><path d="M11 1.118L9.809 3.5h2.382L11 1.118zm0 19.764L9.809 18.5h2.382L11 20.882zM20.882 11L18.5 9.809v2.382L20.882 11zM1.118 11L3.5 9.809v2.382L1.118 11zm2.894-6.988l.843 2.527 1.684-1.684-2.527-.843zm13.976 13.976l-2.527-.843 1.684-1.684.843 2.527zm0-13.976l-2.527.843 1.684 1.684.843-2.527zM4.012 17.988l.843-2.527 1.684 1.684-2.527.843z"/></g></svg>